<svg xmlns="http://www.w3.org/2000/svg" height="20px" viewBox="0 -960 960 960" width="20px" fill="#e3e3e3"><path d="M234.54-234.75q-11.77-11.98-11.77-29.46t11.98-29.25q11.98-11.77 29.46-11.77t29.25 11.98q11.77 11.98 11.77 29.46t-11.98 29.25q-11.98 11.77-29.46 11.77t-29.25-11.98Zm216 0q-11.77-11.98-11.77-29.46t11.98-29.25q11.98-11.77 29.46-11.77t29.25 11.98q11.77 11.98 11.77 29.46t-11.98 29.25q-11.98 11.77-29.46 11.77t-29.25-11.98Zm216 0q-11.77-11.98-11.77-29.46t11.98-29.25q11.98-11.77 29.46-11.77t29.25 11.98q11.77 11.98 11.77 29.46t-11.98 29.25q-11.98 11.77-29.46 11.77t-29.25-11.98Zm-432-216q-11.77-11.98-11.77-29.46t11.98-29.25q11.98-11.77 29.46-11.77t29.25 11.98q11.77 11.98 11.77 29.46t-11.98 29.25q-11.98 11.77-29.46 11.77t-29.25-11.98Zm216 0q-11.77-11.98-11.77-29.46t11.98-29.25q11.98-11.77 29.46-11.77t29.25 11.98q11.77 11.98 11.77 29.46t-11.98 29.25q-11.98 11.77-29.46 11.77t-29.25-11.98Zm216 0q-11.77-11.98-11.77-29.46t11.98-29.25q11.98-11.77 29.46-11.77t29.25 11.98q11.77 11.98 11.77 29.46t-11.98 29.25q-11.98 11.77-29.46 11.77t-29.25-11.98Zm-432-216q-11.77-11.98-11.77-29.46t11.98-29.25q11.98-11.77 29.46-11.77t29.25 11.98q11.77 11.98 11.77 29.46t-11.98 29.25q-11.98 11.77-29.46 11.77t-29.25-11.98Zm216 0q-11.77-11.98-11.77-29.46t11.98-29.25q11.98-11.77 29.46-11.77t29.25 11.98q11.77 11.98 11.77 29.46t-11.98 29.25q-11.98 11.77-29.46 11.77t-29.25-11.98Zm216 0q-11.77-11.98-11.77-29.46t11.98-29.25q11.98-11.77 29.46-11.77t29.25 11.98q11.77 11.98 11.77 29.46t-11.98 29.25q-11.98 11.77-29.46 11.77t-29.25-11.98Z"/></svg>