<svg xmlns="http://www.w3.org/2000/svg" height="20px" viewBox="0 -960 960 960" width="20px" fill="#e3e3e3"><path d="M241.54-433.54q-18.77-18.77-18.77-46.46t18.77-46.46q18.77-18.77 46.46-18.77t46.46 18.77q18.77 18.77 18.77 46.46t-18.77 46.46q-18.77 18.77-46.46 18.77t-46.46-18.77ZM288-280q-83.08 0-141.54-58.46Q88-396.92 88-480q0-83.08 58.46-141.54Q204.92-680 288-680q59.62 0 109.62 32.88 50 32.89 73.76 87.12h360.16l80 80-127.69 114.15-72.47-51.53-64.3 53.07L564.92-424h-81.54q-14.76 66.46-71.26 105.23Q355.62-280 288-280Zm0-32q66.08 0 113.31-42.04 47.23-42.04 51.92-101.96h123.39l69.23 49.69 63.3-51.31L784-405.77 865.23-481l-46-47h-371q-16.69-49.92-59.42-84.96Q346.08-648 288-648q-70 0-119 49t-49 119q0 70 49 119t119 49Z"/></svg>