<svg xmlns="http://www.w3.org/2000/svg" height="20px" viewBox="0 -960 960 960" width="20px" fill="#e3e3e3"><path d="M565-395q35-35 35-85t-35-85q-35-35-85-35t-85 35q-35 35-35 85t35 85q35 35 85 35t85-35Zm-192.92 22.92Q328-416.15 328-480t44.08-107.92Q416.15-632 480-632t107.92 44.08Q632-543.85 632-480t-44.08 107.92Q543.85-328 480-328t-107.92-44.08ZM216-464H68v-32h148v32Zm676 0H744v-32h148v32ZM464-744v-148h32v148h-32Zm0 676v-148h32v148h-32ZM282.85-655.85l-88.39-86.92 21.77-25.77 90.46 89.39-23.84 23.3Zm460.92 460.39-88.69-85.62 22.07-24.07 88.39 87.92-21.77 21.77Zm-89.92-481.69 88.92-86.39 21.77 19.77-85.39 91.46-25.3-24.84ZM191.46-216.23l89.62-86.69 20.54 20.07-84.16 90.16-26-23.54ZM480-480Z"/></svg>