<svg width="48" height="48" viewBox="0 0 48 48" fill="none" xmlns="http://www.w3.org/2000/svg">
<path d="M18.2998 4.5V24C18.2998 31.9542 22.4295 38.9381 28.6553 42.9385C28.4057 42.9997 28.1546 43.058 27.9014 43.1094C27.2631 43.2389 26.6129 43.3377 25.9521 43.4033C25.3099 43.4671 24.6585 43.5 24 43.5C13.2304 43.5 4.5 34.7696 4.5 24V4.5H18.2998ZM43.5 4.5V24C43.5 28.3922 42.0492 32.441 39.6006 35.7002C38.7218 36.8698 37.7123 37.9351 36.5977 38.8799C32.3762 35.301 29.7002 29.9635 29.7002 24V4.5H43.5Z" stroke="#F5F5F5" stroke-width="3"/>
</svg>
