<svg width="1000" height="1000" viewBox="0 0 1000 1000" fill="none" xmlns="http://www.w3.org/2000/svg">
<g clip-path="url(#clip0_5002_390)">
<path d="M100 500C100 759.267 297.334 972.433 550 997.52C533.554 999.152 516.875 1000 500 1000C223.858 1000 0 776.142 0 500V0H100V500Z" fill="#C22700"/>
<path d="M200 500C200 741.91 371.799 943.675 600.044 989.985C583.64 993.317 566.944 995.837 550 997.52C297.334 972.433 100 759.267 100 500V0H200V500Z" fill="#D64F00"/>
<path d="M300 500C300 723.886 447.153 913.387 650.015 977.095C633.687 982.224 617.002 986.544 600 989.995C371.776 943.668 200 741.896 200 500V0H300V500Z" fill="#ED7E00"/>
<path d="M400 500C400 705.036 523.418 881.234 700.015 958.384C683.775 965.48 667.085 971.734 650 977.1C447.146 913.385 300 723.881 300 500V0H400V500Z" fill="#FFB200"/>
<path d="M800 0V500C800 612.58 837.211 716.466 900 800.039C871.556 837.899 837.863 871.589 800 900.029C678.557 808.808 600 663.58 600 500V0H800Z" fill="#D64F00"/>
<path d="M1000 0V500C1000 612.58 962.788 716.466 900 800.039C837.212 716.466 800 612.58 800 500V0H1000Z" fill="#FFB200"/>
</g>
<defs>
<clipPath id="clip0_5002_390">
<rect width="1000" height="1000" fill="white"/>
</clipPath>
</defs>
</svg>
