<svg width="24" height="24" viewBox="0 0 24 24" fill="none" xmlns="http://www.w3.org/2000/svg">
<path d="M16.7632 9.25V14.75L11.9995 17.5L7.23688 14.75V9.25L11.9995 6.5L16.7632 9.25ZM8.23687 14.1719L11.4995 16.0557V12.2881L8.23687 10.4043V14.1719ZM12.4995 12.2881V16.0557L15.7632 14.1719V10.4033L12.4995 12.2881ZM8.73589 9.53809L11.9995 11.4229L15.2632 9.53809L11.9995 7.6543L8.73589 9.53809Z" fill="white"/>
<path d="M18.9282 8V16L11.9995 20L5.07178 16V8L11.9995 4L18.9282 8ZM6.07178 8.57715V15.4219L11.9995 18.8447L17.9282 15.4219V8.57715L11.9995 5.1543L6.07178 8.57715Z" fill="white"/>
</svg>
