<svg width="24" height="24" viewBox="0 0 24 24" fill="none" xmlns="http://www.w3.org/2000/svg">
<path d="M4.53309 9.31141C6.11592 5.04544 10.7424 2.91426 14.8662 4.5516C18.9897 6.18909 21.0494 10.9744 19.4668 15.2402L19.3057 15.6416C18.9077 16.566 18.3487 17.4086 17.6553 18.126L17.3506 18.4248C16.6235 19.1018 15.7817 19.6364 14.8662 20L12.9951 14.958C14.3376 14.4248 15.05 12.9305 14.6806 11.5253L14.5927 11.246C14.0431 9.76484 12.4366 9.02517 11.0048 9.59364L10.7451 9.71279C9.48848 10.3693 8.89183 11.9168 9.40715 13.3056C9.54654 13.6812 9.76107 14.022 10.0361 14.3066C10.3112 14.5912 10.6415 14.8137 11.0048 14.958L9.13371 20C5.13909 18.4136 3.08141 13.8732 4.39539 9.71279L4.53309 9.31141ZM14.497 5.4813C10.9174 4.06004 6.86681 5.89605 5.4706 9.65907C4.19484 13.0978 5.60233 16.8895 8.57804 18.6201L9.77239 15.4033C9.61075 15.2823 9.45855 15.148 9.31731 15.0019C8.94488 14.6166 8.65654 14.1569 8.46964 13.6533C7.73902 11.6842 8.67752 9.44163 10.6357 8.66395C12.6116 7.8794 14.7939 8.91423 15.5302 10.8983C16.1432 12.5504 15.5808 14.394 14.2275 15.4043L15.4199 18.6182C15.9726 18.2961 16.4841 17.8986 16.9365 17.4306C17.6318 16.7114 18.1752 15.847 18.5293 14.8925L18.6514 14.5371C19.8145 10.8543 17.9819 6.86519 14.497 5.4813Z" fill="white"/>
</svg>
