<svg width="24" height="24" viewBox="0 0 24 24" fill="none" xmlns="http://www.w3.org/2000/svg">
<path d="M9.37207 13.0069C13.179 13.139 15.9917 15.2497 16 15.2559V19.2559H2V15.2559C2.00854 15.2495 5.00571 13 9 13L9.37207 13.0069ZM9 14C7.18416 14 5.577 14.5131 4.41113 15.0391C3.83128 15.3007 3.3693 15.562 3.05566 15.7549C3.03658 15.7667 3.01796 15.7789 3 15.7901V18.2559H15V15.7901C14.982 15.7789 14.9634 15.7667 14.9443 15.7549C14.6307 15.562 14.1687 15.3007 13.5889 15.0391C12.423 14.5131 10.8158 14 9 14ZM12 8.00001C12 6.34315 10.6569 5 9 5C7.34315 5 6 6.34315 6 8.00001C6 9.65687 7.34315 11 9 11V12C6.79086 12 5 10.2092 5 8.00001C5 5.79087 6.79086 4 9 4C11.2091 4 13 5.79087 13 8.00001C13 10.2092 11.2091 12 9 12V11C10.6569 11 12 9.65687 12 8.00001ZM22.625 6.81348L17.7559 11.6826L14.7861 8.71388L15.5 8.00001L17.7559 10.2559L21.9111 6.09961L22.625 6.81348Z" fill="white"/>
</svg>
