<svg width="24" height="24" viewBox="0 0 24 24" fill="none" xmlns="http://www.w3.org/2000/svg">
<path d="M19.2416 8.1875L19.2514 9.1416C19.3413 13.7135 19.8163 15.4786 12.0004 19.9932C4.18435 15.4785 4.65853 13.7135 4.74845 9.1416L4.75919 8.1875L12.0121 4L19.2416 8.1875ZM5.75235 8.76855C5.73843 9.89396 5.69335 10.7155 5.7172 11.5644C5.74283 12.4757 5.85681 13.185 6.16349 13.8584C6.76177 15.1719 8.20808 16.5956 12.0004 18.833C15.7925 16.5957 17.2391 15.1719 17.8373 13.8584C18.144 13.1851 18.257 12.4757 18.2826 11.5644C18.3065 10.715 18.2604 9.89302 18.2465 8.7666L12.0111 5.15429L5.75235 8.76855Z" fill="white"/>
</svg>
